# xmcd CD database file
# Copyright (C) 1993-1998 Ti Kan
#
# Track frame offsets:
#	150
#	20040
#	33597
#	62260
#	88117
#	115187
#	139452
#	154834
#	183432
#	201845
#	228915
#	247602
#
# Disc length: 3610 seconds
#
# Revision: 3
# Processed by: cddbd v1.4b41PL1 Copyright (c) Steve Scherf et al.
# Submitted via: xmcd 2.2 PL0
#
DISCID=9b0e180c
DTITLE=Greg Piccolo and Heavy Juice - Acid Blue
DYEAR=1900
DGENRE=
TTITLE0=Peacock Alley
TTITLE1=Sign Language
TTITLE2=Always A First Time
TTITLE3=Smoothin' For Lester
TTITLE4=Who Do You Think You're Foolin'
TTITLE5=Someday After Awhile (You'll Be Sorry)
TTITLE6=Bottoms Up
TTITLE7=I Can Do This All Night Long
TTITLE8=Tuff Guy
TTITLE9=Rock Me Baby
TTITLE10=Cool Mambo
TTITLE11=Keep On Tryin'
EXTD=
EXTT0=
EXTT1=
EXTT2=
EXTT3=
EXTT4=
EXTT5=
EXTT6=
EXTT7=
EXTT8=
EXTT9=
EXTT10=
EXTT11=
PLAYORDER=
